<svg width="962" height="915" viewBox="0 0 962 915" fill="none" xmlns="http://www.w3.org/2000/svg">
<path d="M957.5 705L781 629L721.5 578V444M721.5 444L786.5 322.5L797 192.5L744 92.5L587 11L439 35.5L348 114.5M721.5 444L708 405.5M348 114.5L357.5 140L314 250L329 297.5L304.5 370M348 114.5L621.5 151L569.5 257.5L629.5 333L680.5 297.5L729 315V370L708 405.5M304.5 370H376.5M304.5 370L231 377.5M376.5 370L395.5 578M376.5 370L424.5 405.5L435.5 534L395.5 578M395.5 578H455.5M395.5 578L283.5 645.5L253.74 599M455.5 578L603.5 534L652.5 444L687 441L708 405.5M455.5 578L472 670.5L348 713L160 876L206.5 670.5L253.74 599M231 377.5L179 333L128.5 356.5V405.5M231 377.5L212.707 405.5M128.5 405.5L100 428.5L97.5 443L67.5 463L69.5 487.5L48 510L79 659L10 912M128.5 405.5H157M253.74 599L243.5 583L218.5 503.339M93.5 543L128.5 550V583L168.5 575L173 537M173 537L113 487.5M173 537L191.5 571L218.5 556L206.5 514.5L141.5 443M209 513L218.5 503.339M218.5 503.339L214 489L210.25 452M210.25 452L206.5 415L212.707 405.5M210.25 452L157 405.5M157 405.5L173 380.5L212.707 405.5" stroke="black" stroke-width="20"/>
<path d="M505 253L463 305" stroke="#900000" stroke-width="20"/>
<path d="M463 253L505 305" stroke="#900000" stroke-width="20"/>
</svg>
