<svg width="2669" height="517" viewBox="0 0 2669 517" fill="none" xmlns="http://www.w3.org/2000/svg">
<g filter="url(#filter0_d_151_67)">
<rect x="67.7744" y="57" width="2533.48" height="381.905" rx="80.6841" fill="white"/>
<path d="M1395.88 311.992H1377.98L1329.09 163.964H1347.17L1395.88 311.992Z" fill="black"/>
<path d="M458.351 297.639H482.965V312.442H455.597C444.236 312.442 440.277 306.418 440.277 297.639V185.757H458.351V297.639ZM493.725 267.001C493.725 237.395 511.11 220.183 536.757 220.183C560.854 220.183 577.551 235.158 577.551 260.976C577.551 264.247 577.379 268.206 576.862 271.132H512.315V276.296C512.315 290.41 522.298 300.049 537.101 300.049C548.978 300.049 557.756 293.853 559.994 284.73H577.723C574.452 302.459 558.1 314.163 537.101 314.163C510.594 314.163 493.725 295.746 493.725 267.001ZM512.315 258.739H559.477V255.468C559.477 242.903 550.183 234.469 536.585 234.469C522.298 234.469 512.315 243.247 512.315 256.157V258.739ZM600.044 273.37V259.083H659.428V273.37H600.044ZM763.94 280.943C761.703 301.082 746.384 314.163 724.179 314.163C697.328 314.163 681.148 295.402 681.148 267.345C681.148 237.912 698.877 220.183 724.524 220.183C746.384 220.183 761.875 232.92 763.596 252.37H746.039C743.63 240.838 735.023 235.33 724.007 235.33C709.721 235.33 699.737 245.829 699.737 260.804V274.919C699.737 289.377 709.376 299.188 724.179 299.188C736.056 299.188 744.662 292.131 746.384 280.943H763.94ZM779.145 267.173C779.145 237.739 796.358 220.183 822.005 220.183C847.135 220.183 864.864 237.051 864.864 267.173C864.864 295.402 849.201 314.163 822.005 314.163C795.669 314.163 779.145 296.09 779.145 267.173ZM797.735 274.574C797.735 290.754 808.579 299.188 822.005 299.188C835.775 299.188 846.275 290.582 846.275 274.574V260.46C846.275 244.969 836.119 235.33 822.005 235.33C807.718 235.33 797.735 245.141 797.735 260.46V274.574ZM887.234 312.442V221.904H903.069L905.479 238.772H909.094C913.397 227.068 923.725 220.183 935.601 220.183C947.65 220.183 957.806 227.24 960.904 239.461H964.691C969.51 227.412 980.182 220.183 992.919 220.183C1010.82 220.183 1022.35 229.994 1022.35 251.854V312.442H1004.11V257.534C1004.11 241.01 996.878 235.33 985.174 235.33C971.403 235.33 964.002 246.862 964.002 263.73V312.442H945.757V259.083C945.757 243.075 939.388 235.33 927.339 235.33C914.258 235.33 905.479 246.518 905.479 263.386V312.442H887.234ZM1050.79 312.442V221.904H1066.62L1069.03 238.772H1072.65C1076.95 227.068 1087.28 220.183 1099.15 220.183C1111.2 220.183 1121.36 227.24 1124.46 239.461H1128.24C1133.06 227.412 1143.74 220.183 1156.47 220.183C1174.37 220.183 1185.91 229.994 1185.91 251.854V312.442H1167.66V257.534C1167.66 241.01 1160.43 235.33 1148.73 235.33C1134.96 235.33 1127.56 246.862 1127.56 263.73V312.442H1109.31V259.083C1109.31 243.075 1102.94 235.33 1090.89 235.33C1077.81 235.33 1069.03 246.518 1069.03 263.386V312.442H1050.79ZM1214.34 207.101V185.757H1232.41V207.101H1214.34ZM1214.34 312.442V221.904H1232.41V312.442H1214.34ZM1285.14 297.639H1309.75V312.442H1282.39C1271.03 312.442 1267.07 306.418 1267.07 297.639V236.879H1249.68V221.904H1267.07V192.298H1285.14V221.904H1307.86V236.879H1285.14V297.639Z" fill="black"/>
<path d="M317.569 244.027C312.949 226.209 296.862 212.989 277.553 212.989C258.249 212.989 242.157 226.209 237.533 244.027H204.938V264.718H237.533C242.157 282.54 258.249 295.756 277.553 295.756C296.862 295.756 312.949 282.54 317.569 264.718H350.169V244.027H317.569ZM277.553 275.064C266.101 275.064 256.806 265.789 256.806 254.372C256.806 242.951 266.101 233.681 277.553 233.681C289.001 233.681 298.301 242.951 298.301 254.372C298.301 265.789 289.001 275.064 277.553 275.064Z" fill="black"/>
<path d="M1798.72 274.238V225.638H1817.14V272.192C1817.14 280.718 1818.84 287.141 1822.25 291.461C1825.66 295.781 1830.72 297.941 1837.43 297.941C1842.09 297.941 1846.07 296.804 1849.37 294.531C1852.78 292.257 1855.39 289.017 1857.21 284.811C1859.03 280.491 1859.94 275.318 1859.94 269.293V225.638H1878.35V312.948H1862.15L1858.57 293.337L1863.18 297.771C1860.45 301.977 1856.75 305.729 1852.09 309.026C1847.55 312.322 1841.24 313.971 1833.17 313.971C1828.5 313.971 1824.07 313.289 1819.86 311.924C1815.77 310.56 1812.13 308.343 1808.95 305.274C1805.77 302.204 1803.27 298.112 1801.45 292.996C1799.63 287.88 1798.72 281.628 1798.72 274.238Z" fill="#2BA0B7"/>
<path d="M1896.5 225.638H1912.53L1916.11 245.59L1911.68 241.156C1914.41 236.95 1918.1 233.141 1922.76 229.731C1927.54 226.32 1934.13 224.615 1942.55 224.615C1949.03 224.615 1954.88 225.922 1960.11 228.537C1965.45 231.038 1969.72 235.188 1972.9 240.985C1976.08 246.783 1977.67 254.571 1977.67 264.348V312.948H1959.09V265.882C1959.09 257.583 1957.32 251.274 1953.8 246.954C1950.39 242.634 1945.22 240.474 1938.28 240.474C1933.39 240.474 1929.19 241.611 1925.66 243.884C1922.25 246.158 1919.58 249.455 1917.65 253.775C1915.83 257.981 1914.92 263.04 1914.92 268.952V312.948H1896.5V225.638Z" fill="#2BA0B7"/>
<path d="M1994.42 312.948V225.638H2010.45L2014.03 245.59L2009.77 241.156C2011.48 238.428 2013.47 235.813 2015.74 233.312C2018.13 230.811 2021.14 228.764 2024.78 227.173C2028.41 225.468 2032.85 224.615 2038.08 224.615C2042.51 224.615 2046.72 225.411 2050.7 227.002C2054.68 228.48 2058.09 230.868 2060.93 234.164C2063.88 237.461 2065.99 241.781 2067.24 247.124L2062.46 245.419C2065.08 239.28 2069 234.278 2074.23 230.413C2079.57 226.548 2086.45 224.615 2094.86 224.615C2100.89 224.615 2106.4 225.865 2111.4 228.367C2116.41 230.868 2120.33 234.903 2123.17 240.474C2126.13 246.044 2127.6 253.434 2127.6 262.642V312.948H2109.19V263.836C2109.19 256.219 2107.65 250.421 2104.58 246.442C2101.51 242.463 2096.97 240.474 2090.94 240.474C2084.57 240.474 2079.52 242.748 2075.76 247.295C2072.13 251.729 2070.31 257.868 2070.31 265.712V312.948H2051.72V263.836C2051.72 256.219 2050.19 250.421 2047.12 246.442C2044.05 242.463 2039.44 240.474 2033.3 240.474C2029.1 240.474 2025.46 241.554 2022.39 243.714C2019.43 245.76 2017.1 248.773 2015.4 252.752C2013.69 256.617 2012.84 261.108 2012.84 266.223V312.948H1994.42Z" fill="#2BA0B7"/>
<path d="M2143.45 252.24C2144.02 246.556 2145.95 241.668 2149.25 237.575C2152.66 233.482 2157.09 230.299 2162.55 228.025C2168.12 225.752 2174.6 224.615 2181.99 224.615C2193.58 224.615 2202.56 227.343 2208.93 232.8C2215.3 238.143 2218.48 245.988 2218.48 256.333V291.291C2218.48 293.451 2218.93 294.929 2219.84 295.724C2220.75 296.52 2222.17 296.918 2224.11 296.918H2227.86V312.948H2218.14C2211.89 312.948 2207.62 311.583 2205.35 308.855C2203.07 306.127 2201.99 302.432 2202.11 297.771L2202.28 291.461L2204.84 294.19C2202.11 299.874 2198.24 304.592 2193.24 308.343C2188.24 312.095 2181.59 313.971 2173.29 313.971C2166.92 313.971 2161.3 313.004 2156.41 311.072C2151.52 309.026 2147.71 306.07 2144.98 302.204C2142.25 298.339 2140.89 293.735 2140.89 288.392C2140.89 279.411 2144.07 272.533 2150.44 267.758C2156.81 262.87 2166.07 260.425 2178.23 260.425H2200.23V255.139C2200.23 250.251 2198.53 246.442 2195.12 243.714C2191.82 240.872 2187.16 239.451 2181.13 239.451C2175.68 239.451 2171.19 240.644 2167.66 243.032C2164.25 245.305 2162.21 248.375 2161.52 252.24H2143.45ZM2200.23 274.068H2177.38C2171.7 274.068 2167.32 275.148 2164.25 277.308C2161.18 279.468 2159.65 282.764 2159.65 287.198C2159.65 290.836 2161.07 293.849 2163.91 296.236C2166.87 298.51 2170.85 299.647 2175.85 299.647C2180.96 299.647 2185.28 298.68 2188.81 296.748C2192.45 294.815 2195.23 292.2 2197.16 288.903C2199.21 285.493 2200.23 281.571 2200.23 277.137V274.068Z" fill="#2BA0B7"/>
<path d="M2274.04 313.971C2262.33 313.971 2252.84 311.356 2245.56 306.127C2238.29 300.897 2234.48 293.564 2234.14 284.129H2252.21C2252.55 288.676 2254.6 292.428 2258.35 295.383C2262.22 298.226 2267.45 299.647 2274.04 299.647C2277.91 299.647 2281.2 299.192 2283.93 298.282C2286.77 297.373 2288.99 296.066 2290.58 294.36C2292.17 292.541 2292.97 290.495 2292.97 288.221C2292.97 285.038 2292.12 282.764 2290.41 281.4C2288.71 279.922 2286.26 278.899 2283.08 278.331C2279.9 277.649 2276.03 277.023 2271.48 276.455C2266.48 275.887 2261.82 275.148 2257.5 274.238C2253.29 273.215 2249.54 271.851 2246.25 270.145C2243.06 268.327 2240.5 265.939 2238.57 262.983C2236.75 260.028 2235.84 256.276 2235.84 251.729C2235.84 246.158 2237.38 241.327 2240.45 237.234C2243.52 233.141 2247.72 230.015 2253.07 227.855C2258.52 225.581 2264.72 224.501 2271.65 224.615C2282.34 224.615 2291.15 227.002 2298.09 231.777C2305.13 236.552 2308.94 243.43 2309.51 252.411H2291.44C2290.98 248.432 2288.99 245.192 2285.47 242.691C2282.06 240.076 2277.57 238.769 2271.99 238.769C2266.54 238.769 2262.16 239.792 2258.86 241.838C2255.57 243.884 2253.92 246.67 2253.92 250.194C2253.92 252.922 2254.77 254.969 2256.48 256.333C2258.18 257.697 2260.63 258.663 2263.81 259.232C2266.99 259.8 2270.69 260.312 2274.89 260.767C2281.6 261.562 2287.68 262.756 2293.14 264.348C2298.6 265.825 2302.92 268.327 2306.1 271.851C2309.4 275.261 2311.05 280.207 2311.05 286.687C2311.05 292.257 2309.4 297.089 2306.1 301.181C2302.92 305.274 2298.54 308.457 2292.97 310.731C2287.4 312.891 2281.09 313.971 2274.04 313.971Z" fill="#2BA0B7"/>
<path d="M2325.32 193.579H2343.73V267.929L2383.3 225.638H2404.95L2372.04 260.937L2407 312.948H2385.17L2359.42 274.409L2343.73 290.779V312.948H2325.32V193.579Z" fill="#2BA0B7"/>
<rect x="1469.32" y="191.684" width="253.516" height="123.916" rx="12.8842" fill="#2BA0B7"/>
<path d="M1541.04 239.547C1525.7 237.199 1506.08 251.203 1506.08 251.203C1516.8 261.917 1524.45 265.038 1541.04 265.356C1557.64 265.674 1574.34 253.284 1574.34 253.284C1563.49 245.123 1556.38 241.895 1541.04 239.547Z" fill="white"/>
<g filter="url(#filter1_d_151_67)">
<path d="M1667.81 194.803C1664.82 156.532 1698.56 255.433 1698.61 255.578C1698.61 255.578 1700.89 279.505 1686.13 301.367C1673.34 320.296 1671.96 356.797 1674.9 364.536C1677.17 364.91 1678.06 365.047 1676.55 365.89C1675.91 366.245 1675.36 365.736 1674.9 364.536C1670.04 363.736 1658.82 361.853 1651.16 349.654C1639.91 331.755 1643.24 293.044 1638.25 288.88C1633.26 284.717 1598.29 278.057 1595.79 274.311C1593.3 270.564 1599.16 257.744 1595.79 237.679C1592.43 217.613 1670.8 233.102 1667.81 194.803ZM1642.61 239.548C1627.28 237.201 1607.66 251.193 1607.65 251.203C1618.37 261.917 1626.02 265.039 1642.61 265.356C1659.18 265.674 1675.86 253.321 1675.91 253.284C1665.06 245.123 1657.95 241.896 1642.61 239.548Z" fill="white"/>
</g>
</g>
<defs>
<filter id="filter0_d_151_67" x="0.537659" y="0.521126" width="2667.95" height="516.378" filterUnits="userSpaceOnUse" color-interpolation-filters="sRGB">
<feFlood flood-opacity="0" result="BackgroundImageFix"/>
<feColorMatrix in="SourceAlpha" type="matrix" values="0 0 0 0 0 0 0 0 0 0 0 0 0 0 0 0 0 0 127 0" result="hardAlpha"/>
<feOffset dy="10.7579"/>
<feGaussianBlur stdDeviation="33.6184"/>
<feComposite in2="hardAlpha" operator="out"/>
<feColorMatrix type="matrix" values="0 0 0 0 0 0 0 0 0 0 0 0 0 0 0 0 0 0 0.1 0"/>
<feBlend mode="normal" in2="BackgroundImageFix" result="effect1_dropShadow_151_67"/>
<feBlend mode="normal" in="SourceGraphic" in2="effect1_dropShadow_151_67" result="shape"/>
</filter>
<filter id="filter1_d_151_67" x="1557.26" y="149.621" width="179.372" height="255.79" filterUnits="userSpaceOnUse" color-interpolation-filters="sRGB">
<feFlood flood-opacity="0" result="BackgroundImageFix"/>
<feColorMatrix in="SourceAlpha" type="matrix" values="0 0 0 0 0 0 0 0 0 0 0 0 0 0 0 0 0 0 127 0" result="hardAlpha"/>
<feOffset dy="1.51579"/>
<feGaussianBlur stdDeviation="18.9474"/>
<feComposite in2="hardAlpha" operator="out"/>
<feColorMatrix type="matrix" values="0 0 0 0 0 0 0 0 0 0 0 0 0 0 0 0 0 0 0.25 0"/>
<feBlend mode="normal" in2="BackgroundImageFix" result="effect1_dropShadow_151_67"/>
<feBlend mode="normal" in="SourceGraphic" in2="effect1_dropShadow_151_67" result="shape"/>
</filter>
</defs>
</svg>
