<!-- <svg width="500" height="120" viewBox="0 0 500 120" fill="none" xmlns="http://www.w3.org/2000/svg">
<rect width="120" height="120" fill="black"/>
<path d="M178.327 76.4494H187.557V82H177.295C173.035 82 171.551 79.741 171.551 76.4494V34.4972H178.327V76.4494ZM191.592 64.961C191.592 53.8598 198.111 47.4056 207.727 47.4056C216.763 47.4056 223.024 53.0207 223.024 62.702C223.024 63.9283 222.959 65.4127 222.766 66.51H198.562V68.4462C198.562 73.7386 202.306 77.353 207.856 77.353C212.31 77.353 215.601 75.0295 216.44 71.6088H223.088C221.862 78.2566 215.73 82.6454 207.856 82.6454C197.917 82.6454 191.592 75.7394 191.592 64.961ZM198.562 61.8629H216.247V60.6367C216.247 55.9251 212.762 52.7625 207.663 52.7625C202.306 52.7625 198.562 56.0542 198.562 60.8948V61.8629ZM231.458 67.349V61.992H253.725V67.349H231.458ZM292.914 70.1888C292.075 77.7402 286.331 82.6454 278.005 82.6454C267.936 82.6454 261.869 75.6104 261.869 65.09C261.869 54.0534 268.517 47.4056 278.134 47.4056C286.331 47.4056 292.139 52.1817 292.785 59.4749H286.202C285.298 55.1506 282.071 53.0853 277.94 53.0853C272.583 53.0853 268.84 57.0223 268.84 62.6374V67.9299C268.84 73.3514 272.454 77.0303 278.005 77.0303C282.458 77.0303 285.685 74.3841 286.331 70.1888H292.914ZM298.615 65.0255C298.615 53.9888 305.069 47.4056 314.686 47.4056C324.109 47.4056 330.757 53.7307 330.757 65.0255C330.757 75.6104 324.884 82.6454 314.686 82.6454C304.811 82.6454 298.615 75.8685 298.615 65.0255ZM305.586 67.8008C305.586 73.8677 309.652 77.0303 314.686 77.0303C319.85 77.0303 323.787 73.8032 323.787 67.8008V62.5084C323.787 56.6996 319.979 53.0853 314.686 53.0853C309.329 53.0853 305.586 56.7641 305.586 62.5084V67.8008ZM339.145 82V48.051H345.083L345.986 54.3761H347.342C348.955 49.9872 352.828 47.4056 357.281 47.4056C361.799 47.4056 365.607 50.0518 366.769 54.6343H368.189C369.996 50.1163 373.998 47.4056 378.774 47.4056C385.486 47.4056 389.81 51.0845 389.81 59.2813V82H382.969V61.4112C382.969 55.2151 380.258 53.0853 375.869 53.0853C370.706 53.0853 367.931 57.4096 367.931 63.7347V82H361.089V61.992C361.089 55.9896 358.701 53.0853 354.183 53.0853C349.278 53.0853 345.986 57.2805 345.986 63.6056V82H339.145ZM400.472 82V48.051H406.41L407.314 54.3761H408.669C410.283 49.9872 414.155 47.4056 418.609 47.4056C423.127 47.4056 426.935 50.0518 428.096 54.6343H429.516C431.323 50.1163 435.325 47.4056 440.101 47.4056C446.813 47.4056 451.138 51.0845 451.138 59.2813V82H444.296V61.4112C444.296 55.2151 441.586 53.0853 437.197 53.0853C432.033 53.0853 429.258 57.4096 429.258 63.7347V82H422.417V61.992C422.417 55.9896 420.029 53.0853 415.511 53.0853C410.605 53.0853 407.314 57.2805 407.314 63.6056V82H400.472ZM461.8 42.5004V34.4972H468.577V42.5004H461.8ZM461.8 82V48.051H468.577V82H461.8ZM488.347 76.4494H497.577V82H487.314C483.055 82 481.57 79.741 481.57 76.4494V53.6661H475.052V48.051H481.57V36.9498H488.347V48.051H496.867V53.6661H488.347V76.4494Z" fill="black"/>
<path d="M74.8786 56.5403C73.161 49.9155 67.1794 45 60 45C52.8225 45 46.839 49.9155 45.1195 56.5403H33V64.2339H45.1195C46.839 70.8605 52.8225 75.7742 60 75.7742C67.1794 75.7742 73.161 70.8605 74.8786 64.2339H87V56.5403H74.8786ZM60 68.0806C55.7417 68.0806 52.2857 64.6321 52.2857 60.3871C52.2857 56.1403 55.7417 52.6935 60 52.6935C64.2564 52.6935 67.7143 56.1403 67.7143 60.3871C67.7143 64.6321 64.2564 68.0806 60 68.0806Z" fill="white"/>
</svg> -->

<svg width="220" height="40" viewBox="0 0 220 40" fill="none" xmlns="http://www.w3.org/2000/svg">
  <defs>
    <linearGradient id="TruthLensGradient" x1="0" y1="0" x2="100%" y2="0">
      <stop offset="0%" stop-color="#00e6b2" />
      <stop offset="100%" stop-color="#3a8bff" />
    </linearGradient>
  </defs>

  <!-- Eye Icon -->
  <path
    d="M18 6C10.5 6 4.095 10.665 1.5 18C4.095 25.335 10.5 30 18 30C25.5 30 31.905 25.335 34.5 18C31.905 10.665 25.5 6 18 6ZM18 25.5C13.86 25.5 10.5 22.14 10.5 18C10.5 13.86 13.86 10.5 18 10.5C22.14 10.5 25.5 13.86 25.5 18C25.5 22.14 22.14 25.5 18 25.5ZM18 13.5C15.705 13.5 13.5 15.705 13.5 18C13.5 20.295 15.705 22.5 18 22.5C20.295 22.5 22.5 20.295 22.5 18C22.5 15.705 20.295 13.5 18 13.5Z"
    fill="url(#TruthLensGradient)"
    transform="translate(0 2)"
  />

  <!-- Text -->
  <text x="50" y="28" font-size="24" font-family="Inter, sans-serif" fill="url(#TruthLensGradient)">TruthLens</text>
</svg>
