<svg width="1626" height="513" viewBox="0 0 1626 513" fill="none" xmlns="http://www.w3.org/2000/svg">
<path d="M20.25 316.85V188.6H68.85V311.45C68.85 333.95 73.35 350.9 82.35 362.3C91.35 373.7 104.7 379.4 122.4 379.4C134.7 379.4 145.2 376.4 153.9 370.4C162.9 364.4 169.8 355.85 174.6 344.75C179.4 333.35 181.8 319.7 181.8 303.8V188.6H230.4V419H187.65L178.2 367.25L190.35 378.95C183.15 390.05 173.4 399.95 161.1 408.65C149.1 417.35 132.45 421.7 111.15 421.7C98.85 421.7 87.15 419.9 76.05 416.3C65.25 412.7 55.65 406.85 47.25 398.75C38.85 390.65 32.25 379.85 27.45 366.35C22.65 352.85 20.25 336.35 20.25 316.85ZM278.293 188.6H320.593L330.043 241.25L318.343 229.55C325.543 218.45 335.293 208.4 347.593 199.4C360.193 190.4 377.593 185.9 399.793 185.9C416.893 185.9 432.343 189.35 446.143 196.25C460.243 202.85 471.493 213.8 479.893 229.1C488.293 244.4 492.493 264.95 492.493 290.75V419H443.443V294.8C443.443 272.9 438.793 256.25 429.493 244.85C420.493 233.45 406.843 227.75 388.543 227.75C375.643 227.75 364.543 230.75 355.243 236.75C346.243 242.75 339.193 251.45 334.093 262.85C329.293 273.95 326.893 287.3 326.893 302.9V419H278.293V188.6ZM536.692 419V188.6H578.992L588.442 241.25L577.192 229.55C581.692 222.35 586.942 215.45 592.942 208.85C599.242 202.25 607.192 196.85 616.792 192.65C626.392 188.15 638.092 185.9 651.892 185.9C663.592 185.9 674.692 188 685.192 192.2C695.692 196.1 704.692 202.4 712.192 211.1C719.992 219.8 725.542 231.2 728.842 245.3L716.242 240.8C723.142 224.6 733.492 211.4 747.292 201.2C761.392 191 779.542 185.9 801.742 185.9C817.642 185.9 832.192 189.2 845.392 195.8C858.592 202.4 868.942 213.05 876.442 227.75C884.242 242.45 888.142 261.95 888.142 286.25V419H839.542V289.4C839.542 269.3 835.492 254 827.392 243.5C819.292 233 807.292 227.75 791.392 227.75C774.592 227.75 761.242 233.75 751.342 245.75C741.742 257.45 736.942 273.65 736.942 294.35V419H687.892V289.4C687.892 269.3 683.842 254 675.742 243.5C667.642 233 655.492 227.75 639.292 227.75C628.192 227.75 618.592 230.6 610.492 236.3C602.692 241.7 596.542 249.65 592.042 260.15C587.542 270.35 585.292 282.2 585.292 295.7V419H536.692ZM929.95 258.8C931.45 243.8 936.55 230.9 945.25 220.1C954.25 209.3 965.95 200.9 980.35 194.9C995.05 188.9 1012.15 185.9 1031.65 185.9C1062.25 185.9 1085.95 193.1 1102.75 207.5C1119.55 221.6 1127.95 242.3 1127.95 269.6V361.85C1127.95 367.55 1129.15 371.45 1131.55 373.55C1133.95 375.65 1137.7 376.7 1142.8 376.7H1152.7V419H1127.05C1110.55 419 1099.3 415.4 1093.3 408.2C1087.3 401 1084.45 391.25 1084.75 378.95L1085.2 362.3L1091.95 369.5C1084.75 384.5 1074.55 396.95 1061.35 406.85C1048.15 416.75 1030.6 421.7 1008.7 421.7C991.9 421.7 977.05 419.15 964.15 414.05C951.25 408.65 941.2 400.85 934 390.65C926.8 380.45 923.2 368.3 923.2 354.2C923.2 330.5 931.6 312.35 948.4 299.75C965.2 286.85 989.65 280.4 1021.75 280.4H1079.8V266.45C1079.8 253.55 1075.3 243.5 1066.3 236.3C1057.6 228.8 1045.3 225.05 1029.4 225.05C1015 225.05 1003.15 228.2 993.85 234.5C984.85 240.5 979.45 248.6 977.65 258.8H929.95ZM1079.8 316.4H1019.5C1004.5 316.4 992.95 319.25 984.85 324.95C976.75 330.65 972.7 339.35 972.7 351.05C972.7 360.65 976.45 368.6 983.95 374.9C991.75 380.9 1002.25 383.9 1015.45 383.9C1028.95 383.9 1040.35 381.35 1049.65 376.25C1059.25 371.15 1066.6 364.25 1071.7 355.55C1077.1 346.55 1079.8 336.2 1079.8 324.5V316.4ZM1274.57 421.7C1243.67 421.7 1218.62 414.8 1199.42 401C1180.22 387.2 1170.17 367.85 1169.27 342.95H1216.97C1217.87 354.95 1223.27 364.85 1233.17 372.65C1243.37 380.15 1257.17 383.9 1274.57 383.9C1284.77 383.9 1293.47 382.7 1300.67 380.3C1308.17 377.9 1314.02 374.45 1318.22 369.95C1322.42 365.15 1324.52 359.75 1324.52 353.75C1324.52 345.35 1322.27 339.35 1317.77 335.75C1313.27 331.85 1306.82 329.15 1298.42 327.65C1290.02 325.85 1279.82 324.2 1267.82 322.7C1254.62 321.2 1242.32 319.25 1230.92 316.85C1219.82 314.15 1209.92 310.55 1201.22 306.05C1192.82 301.25 1186.07 294.95 1180.97 287.15C1176.17 279.35 1173.77 269.45 1173.77 257.45C1173.77 242.75 1177.82 230 1185.92 219.2C1194.02 208.4 1205.12 200.15 1219.22 194.45C1233.62 188.45 1249.97 185.6 1268.27 185.9C1296.47 185.9 1319.72 192.2 1338.02 204.8C1356.62 217.4 1366.67 235.55 1368.17 259.25H1320.47C1319.27 248.75 1314.02 240.2 1304.72 233.6C1295.72 226.7 1283.87 223.25 1269.17 223.25C1254.77 223.25 1243.22 225.95 1234.52 231.35C1225.82 236.75 1221.47 244.1 1221.47 253.4C1221.47 260.6 1223.72 266 1228.22 269.6C1232.72 273.2 1239.17 275.75 1247.57 277.25C1255.97 278.75 1265.72 280.1 1276.82 281.3C1294.52 283.4 1310.57 286.55 1324.97 290.75C1339.37 294.65 1350.77 301.25 1359.17 310.55C1367.87 319.55 1372.22 332.6 1372.22 349.7C1372.22 364.4 1367.87 377.15 1359.17 387.95C1350.77 398.75 1339.22 407.15 1324.52 413.15C1309.82 418.85 1293.17 421.7 1274.57 421.7ZM1409.89 104H1458.49V300.2L1562.89 188.6H1620.04L1533.19 281.75L1625.44 419H1567.84L1499.89 317.3L1458.49 360.5V419H1409.89V104Z" fill="black"/>
</svg>
