<svg width="2695" height="915" viewBox="0 0 2695 915" fill="none" xmlns="http://www.w3.org/2000/svg">
<path d="M957.5 705L781 629L721.5 578V444M721.5 444L786.5 322.5L797 192.5L744 92.5L587 11L439 35.5L348 114.5M721.5 444L708 405.5M348 114.5L357.5 140L314 250L329 297.5L304.5 370M348 114.5L621.5 151L569.5 257.5L629.5 333L680.5 297.5L729 315V370L708 405.5M304.5 370H376.5M304.5 370L231 377.5M376.5 370L395.5 578M376.5 370L424.5 405.5L435.5 534L395.5 578M395.5 578H455.5M395.5 578L283.5 645.5L253.74 599M455.5 578L603.5 534L652.5 444L687 441L708 405.5M455.5 578L472 670.5L348 713L160 876L206.5 670.5L253.74 599M231 377.5L179 333L128.5 356.5V405.5M231 377.5L212.707 405.5M128.5 405.5L100 428.5L97.5 443L67.5 463L69.5 487.5L48 510L79 659L10 912M128.5 405.5H157M253.74 599L243.5 583L218.5 503.339M93.5 543L128.5 550V583L168.5 575L173 537M173 537L113 487.5M173 537L191.5 571L218.5 556L206.5 514.5L141.5 443M209 513L218.5 503.339M218.5 503.339L214 489L210.25 452M210.25 452L206.5 415L212.707 405.5M210.25 452L157 405.5M157 405.5L173 380.5L212.707 405.5" stroke="black" stroke-width="20"/>
<path d="M1089.25 473.85V345.6H1137.85V468.45C1137.85 490.95 1142.35 507.9 1151.35 519.3C1160.35 530.7 1173.7 536.4 1191.4 536.4C1203.7 536.4 1214.2 533.4 1222.9 527.4C1231.9 521.4 1238.8 512.85 1243.6 501.75C1248.4 490.35 1250.8 476.7 1250.8 460.8V345.6H1299.4V576H1256.65L1247.2 524.25L1259.35 535.95C1252.15 547.05 1242.4 556.95 1230.1 565.65C1218.1 574.35 1201.45 578.7 1180.15 578.7C1167.85 578.7 1156.15 576.9 1145.05 573.3C1134.25 569.7 1124.65 563.85 1116.25 555.75C1107.85 547.65 1101.25 536.85 1096.45 523.35C1091.65 509.85 1089.25 493.35 1089.25 473.85ZM1347.29 345.6H1389.59L1399.04 398.25L1387.34 386.55C1394.54 375.45 1404.29 365.4 1416.59 356.4C1429.19 347.4 1446.59 342.9 1468.79 342.9C1485.89 342.9 1501.34 346.35 1515.14 353.25C1529.24 359.85 1540.49 370.8 1548.89 386.1C1557.29 401.4 1561.49 421.95 1561.49 447.75V576H1512.44V451.8C1512.44 429.9 1507.79 413.25 1498.49 401.85C1489.49 390.45 1475.84 384.75 1457.54 384.75C1444.64 384.75 1433.54 387.75 1424.24 393.75C1415.24 399.75 1408.19 408.45 1403.09 419.85C1398.29 430.95 1395.89 444.3 1395.89 459.9V576H1347.29V345.6ZM1605.69 576V345.6H1647.99L1657.44 398.25L1646.19 386.55C1650.69 379.35 1655.94 372.45 1661.94 365.85C1668.24 359.25 1676.19 353.85 1685.79 349.65C1695.39 345.15 1707.09 342.9 1720.89 342.9C1732.59 342.9 1743.69 345 1754.19 349.2C1764.69 353.1 1773.69 359.4 1781.19 368.1C1788.99 376.8 1794.54 388.2 1797.84 402.3L1785.24 397.8C1792.14 381.6 1802.49 368.4 1816.29 358.2C1830.39 348 1848.54 342.9 1870.74 342.9C1886.64 342.9 1901.19 346.2 1914.39 352.8C1927.59 359.4 1937.94 370.05 1945.44 384.75C1953.24 399.45 1957.14 418.95 1957.14 443.25V576H1908.54V446.4C1908.54 426.3 1904.49 411 1896.39 400.5C1888.29 390 1876.29 384.75 1860.39 384.75C1843.59 384.75 1830.24 390.75 1820.34 402.75C1810.74 414.45 1805.94 430.65 1805.94 451.35V576H1756.89V446.4C1756.89 426.3 1752.84 411 1744.74 400.5C1736.64 390 1724.49 384.75 1708.29 384.75C1697.19 384.75 1687.59 387.6 1679.49 393.3C1671.69 398.7 1665.54 406.65 1661.04 417.15C1656.54 427.35 1654.29 439.2 1654.29 452.7V576H1605.69ZM1998.95 415.8C2000.45 400.8 2005.55 387.9 2014.25 377.1C2023.25 366.3 2034.95 357.9 2049.35 351.9C2064.05 345.9 2081.15 342.9 2100.65 342.9C2131.25 342.9 2154.95 350.1 2171.75 364.5C2188.55 378.6 2196.95 399.3 2196.95 426.6V518.85C2196.95 524.55 2198.15 528.45 2200.55 530.55C2202.95 532.65 2206.7 533.7 2211.8 533.7H2221.7V576H2196.05C2179.55 576 2168.3 572.4 2162.3 565.2C2156.3 558 2153.45 548.25 2153.75 535.95L2154.2 519.3L2160.95 526.5C2153.75 541.5 2143.55 553.95 2130.35 563.85C2117.15 573.75 2099.6 578.7 2077.7 578.7C2060.9 578.7 2046.05 576.15 2033.15 571.05C2020.25 565.65 2010.2 557.85 2003 547.65C1995.8 537.45 1992.2 525.3 1992.2 511.2C1992.2 487.5 2000.6 469.35 2017.4 456.75C2034.2 443.85 2058.65 437.4 2090.75 437.4H2148.8V423.45C2148.8 410.55 2144.3 400.5 2135.3 393.3C2126.6 385.8 2114.3 382.05 2098.4 382.05C2084 382.05 2072.15 385.2 2062.85 391.5C2053.85 397.5 2048.45 405.6 2046.65 415.8H1998.95ZM2148.8 473.4H2088.5C2073.5 473.4 2061.95 476.25 2053.85 481.95C2045.75 487.65 2041.7 496.35 2041.7 508.05C2041.7 517.65 2045.45 525.6 2052.95 531.9C2060.75 537.9 2071.25 540.9 2084.45 540.9C2097.95 540.9 2109.35 538.35 2118.65 533.25C2128.25 528.15 2135.6 521.25 2140.7 512.55C2146.1 503.55 2148.8 493.2 2148.8 481.5V473.4ZM2343.57 578.7C2312.67 578.7 2287.62 571.8 2268.42 558C2249.22 544.2 2239.17 524.85 2238.27 499.95H2285.97C2286.87 511.95 2292.27 521.85 2302.17 529.65C2312.37 537.15 2326.17 540.9 2343.57 540.9C2353.77 540.9 2362.47 539.7 2369.67 537.3C2377.17 534.9 2383.02 531.45 2387.22 526.95C2391.42 522.15 2393.52 516.75 2393.52 510.75C2393.52 502.35 2391.27 496.35 2386.77 492.75C2382.27 488.85 2375.82 486.15 2367.42 484.65C2359.02 482.85 2348.82 481.2 2336.82 479.7C2323.62 478.2 2311.32 476.25 2299.92 473.85C2288.82 471.15 2278.92 467.55 2270.22 463.05C2261.82 458.25 2255.07 451.95 2249.97 444.15C2245.17 436.35 2242.77 426.45 2242.77 414.45C2242.77 399.75 2246.82 387 2254.92 376.2C2263.02 365.4 2274.12 357.15 2288.22 351.45C2302.62 345.45 2318.97 342.6 2337.27 342.9C2365.47 342.9 2388.72 349.2 2407.02 361.8C2425.62 374.4 2435.67 392.55 2437.17 416.25H2389.47C2388.27 405.75 2383.02 397.2 2373.72 390.6C2364.72 383.7 2352.87 380.25 2338.17 380.25C2323.77 380.25 2312.22 382.95 2303.52 388.35C2294.82 393.75 2290.47 401.1 2290.47 410.4C2290.47 417.6 2292.72 423 2297.22 426.6C2301.72 430.2 2308.17 432.75 2316.57 434.25C2324.97 435.75 2334.72 437.1 2345.82 438.3C2363.52 440.4 2379.57 443.55 2393.97 447.75C2408.37 451.65 2419.77 458.25 2428.17 467.55C2436.87 476.55 2441.22 489.6 2441.22 506.7C2441.22 521.4 2436.87 534.15 2428.17 544.95C2419.77 555.75 2408.22 564.15 2393.52 570.15C2378.82 575.85 2362.17 578.7 2343.57 578.7ZM2478.89 261H2527.49V457.2L2631.89 345.6H2689.04L2602.19 438.75L2694.44 576H2636.84L2568.89 474.3L2527.49 517.5V576H2478.89V261Z" fill="black"/>
<path d="M505 253L463 305" stroke="#900000" stroke-width="20"/>
<path d="M463 253L505 305" stroke="#900000" stroke-width="20"/>
</svg>
