<svg width="2475" height="675" viewBox="0 0 2475 675" fill="none" xmlns="http://www.w3.org/2000/svg">
<path d="M869.25 328.85V200.6H917.85V323.45C917.85 345.95 922.35 362.9 931.35 374.3C940.35 385.7 953.7 391.4 971.4 391.4C983.7 391.4 994.2 388.4 1002.9 382.4C1011.9 376.4 1018.8 367.85 1023.6 356.75C1028.4 345.35 1030.8 331.7 1030.8 315.8V200.6H1079.4V431H1036.65L1027.2 379.25L1039.35 390.95C1032.15 402.05 1022.4 411.95 1010.1 420.65C998.1 429.35 981.45 433.7 960.15 433.7C947.85 433.7 936.15 431.9 925.05 428.3C914.25 424.7 904.65 418.85 896.25 410.75C887.85 402.65 881.25 391.85 876.45 378.35C871.65 364.85 869.25 348.35 869.25 328.85Z" fill="black"/>
<path d="M1127.29 200.6H1169.59L1179.04 253.25L1167.34 241.55C1174.54 230.45 1184.29 220.4 1196.59 211.4C1209.19 202.4 1226.59 197.9 1248.79 197.9C1265.89 197.9 1281.34 201.35 1295.14 208.25C1309.24 214.85 1320.49 225.8 1328.89 241.1C1337.29 256.4 1341.49 276.95 1341.49 302.75V431H1292.44V306.8C1292.44 284.9 1287.79 268.25 1278.49 256.85C1269.49 245.45 1255.84 239.75 1237.54 239.75C1224.64 239.75 1213.54 242.75 1204.24 248.75C1195.24 254.75 1188.19 263.45 1183.09 274.85C1178.29 285.95 1175.89 299.3 1175.89 314.9V431H1127.29V200.6Z" fill="black"/>
<path d="M1385.69 431V200.6H1427.99L1437.44 253.25L1426.19 241.55C1430.69 234.35 1435.94 227.45 1441.94 220.85C1448.24 214.25 1456.19 208.85 1465.79 204.65C1475.39 200.15 1487.09 197.9 1500.89 197.9C1512.59 197.9 1523.69 200 1534.19 204.2C1544.69 208.1 1553.69 214.4 1561.19 223.1C1568.99 231.8 1574.54 243.2 1577.84 257.3L1565.24 252.8C1572.14 236.6 1582.49 223.4 1596.29 213.2C1610.39 203 1628.54 197.9 1650.74 197.9C1666.64 197.9 1681.19 201.2 1694.39 207.8C1707.59 214.4 1717.94 225.05 1725.44 239.75C1733.24 254.45 1737.14 273.95 1737.14 298.25V431H1688.54V301.4C1688.54 281.3 1684.49 266 1676.39 255.5C1668.29 245 1656.29 239.75 1640.39 239.75C1623.59 239.75 1610.24 245.75 1600.34 257.75C1590.74 269.45 1585.94 285.65 1585.94 306.35V431H1536.89V301.4C1536.89 281.3 1532.84 266 1524.74 255.5C1516.64 245 1504.49 239.75 1488.29 239.75C1477.19 239.75 1467.59 242.6 1459.49 248.3C1451.69 253.7 1445.54 261.65 1441.04 272.15C1436.54 282.35 1434.29 294.2 1434.29 307.7V431H1385.69Z" fill="black"/>
<path d="M1778.95 270.8C1780.45 255.8 1785.55 242.9 1794.25 232.1C1803.25 221.3 1814.95 212.9 1829.35 206.9C1844.05 200.9 1861.15 197.9 1880.65 197.9C1911.25 197.9 1934.95 205.1 1951.75 219.5C1968.55 233.6 1976.95 254.3 1976.95 281.6V373.85C1976.95 379.55 1978.15 383.45 1980.55 385.55C1982.95 387.65 1986.7 388.7 1991.8 388.7H2001.7V431H1976.05C1959.55 431 1948.3 427.4 1942.3 420.2C1936.3 413 1933.45 403.25 1933.75 390.95L1934.2 374.3L1940.95 381.5C1933.75 396.5 1923.55 408.95 1910.35 418.85C1897.15 428.75 1879.6 433.7 1857.7 433.7C1840.9 433.7 1826.05 431.15 1813.15 426.05C1800.25 420.65 1790.2 412.85 1783 402.65C1775.8 392.45 1772.2 380.3 1772.2 366.2C1772.2 342.5 1780.6 324.35 1797.4 311.75C1814.2 298.85 1838.65 292.4 1870.75 292.4H1928.8V278.45C1928.8 265.55 1924.3 255.5 1915.3 248.3C1906.6 240.8 1894.3 237.05 1878.4 237.05C1864 237.05 1852.15 240.2 1842.85 246.5C1833.85 252.5 1828.45 260.6 1826.65 270.8H1778.95ZM1928.8 328.4H1868.5C1853.5 328.4 1841.95 331.25 1833.85 336.95C1825.75 342.65 1821.7 351.35 1821.7 363.05C1821.7 372.65 1825.45 380.6 1832.95 386.9C1840.75 392.9 1851.25 395.9 1864.45 395.9C1877.95 395.9 1889.35 393.35 1898.65 388.25C1908.25 383.15 1915.6 376.25 1920.7 367.55C1926.1 358.55 1928.8 348.2 1928.8 336.5V328.4Z" fill="black"/>
<path d="M2123.57 433.7C2092.67 433.7 2067.62 426.8 2048.42 413C2029.22 399.2 2019.17 379.85 2018.27 354.95H2065.97C2066.87 366.95 2072.27 376.85 2082.17 384.65C2092.37 392.15 2106.17 395.9 2123.57 395.9C2133.77 395.9 2142.47 394.7 2149.67 392.3C2157.17 389.9 2163.02 386.45 2167.22 381.95C2171.42 377.15 2173.52 371.75 2173.52 365.75C2173.52 357.35 2171.27 351.35 2166.77 347.75C2162.27 343.85 2155.82 341.15 2147.42 339.65C2139.02 337.85 2128.82 336.2 2116.82 334.7C2103.62 333.2 2091.32 331.25 2079.92 328.85C2068.82 326.15 2058.92 322.55 2050.22 318.05C2041.82 313.25 2035.07 306.95 2029.97 299.15C2025.17 291.35 2022.77 281.45 2022.77 269.45C2022.77 254.75 2026.82 242 2034.92 231.2C2043.02 220.4 2054.12 212.15 2068.22 206.45C2082.62 200.45 2098.97 197.6 2117.27 197.9C2145.47 197.9 2168.72 204.2 2187.02 216.8C2205.62 229.4 2215.67 247.55 2217.17 271.25H2169.47C2168.27 260.75 2163.02 252.2 2153.72 245.6C2144.72 238.7 2132.87 235.25 2118.17 235.25C2103.77 235.25 2092.22 237.95 2083.52 243.35C2074.82 248.75 2070.47 256.1 2070.47 265.4C2070.47 272.6 2072.72 278 2077.22 281.6C2081.72 285.2 2088.17 287.75 2096.57 289.25C2104.97 290.75 2114.72 292.1 2125.82 293.3C2143.52 295.4 2159.57 298.55 2173.97 302.75C2188.37 306.65 2199.77 313.25 2208.17 322.55C2216.87 331.55 2221.22 344.6 2221.22 361.7C2221.22 376.4 2216.87 389.15 2208.17 399.95C2199.77 410.75 2188.22 419.15 2173.52 425.15C2158.82 430.85 2142.17 433.7 2123.57 433.7Z" fill="black"/>
<path d="M2258.89 116H2307.49V312.2L2411.89 200.6H2469.04L2382.19 293.75L2474.44 431H2416.84L2348.89 329.3L2307.49 372.5V431H2258.89V116Z" fill="black"/>
<rect y="111" width="669" height="327" rx="34" fill="black"/>
<path d="M189.273 237.305C148.791 231.109 97 268.063 97 268.063C125.305 296.336 145.475 304.573 189.273 305.411C233.071 306.25 277.151 273.555 277.151 273.555C248.519 252.019 229.755 243.501 189.273 237.305Z" fill="white"/>
<g filter="url(#filter0_d_158_23)">
<path d="M523.794 119.23C515.89 18.1625 605.081 279.609 605.081 279.609C605.098 279.784 611.034 342.829 572.127 400.442C538.396 450.393 534.755 546.714 542.506 567.136C548.506 568.123 550.847 568.484 546.862 570.707C545.183 571.643 543.708 570.302 542.506 567.136C529.668 565.026 500.077 560.056 479.855 527.866C450.182 480.632 458.968 378.473 445.801 367.487C432.633 356.501 340.332 338.928 333.756 329.041C327.181 319.153 342.632 285.325 333.756 232.374C324.881 179.423 531.698 220.298 523.794 119.23ZM457.302 237.306C416.874 231.119 365.167 267.965 365.03 268.063C393.334 296.336 413.504 304.573 457.302 305.412C501.057 306.25 545.094 273.621 545.181 273.556C516.548 252.02 497.784 243.502 457.302 237.306Z" fill="white"/>
</g>
<defs>
<filter id="filter0_d_158_23" x="232.075" y="0" width="473.34" height="675" filterUnits="userSpaceOnUse" color-interpolation-filters="sRGB">
<feFlood flood-opacity="0" result="BackgroundImageFix"/>
<feColorMatrix in="SourceAlpha" type="matrix" values="0 0 0 0 0 0 0 0 0 0 0 0 0 0 0 0 0 0 127 0" result="hardAlpha"/>
<feOffset dy="4"/>
<feGaussianBlur stdDeviation="50"/>
<feComposite in2="hardAlpha" operator="out"/>
<feColorMatrix type="matrix" values="0 0 0 0 0 0 0 0 0 0 0 0 0 0 0 0 0 0 0.25 0"/>
<feBlend mode="normal" in2="BackgroundImageFix" result="effect1_dropShadow_158_23"/>
<feBlend mode="normal" in="SourceGraphic" in2="effect1_dropShadow_158_23" result="shape"/>
</filter>
</defs>
</svg>
